<svg width="20" height="20" viewBox="0 0 20 20" fill="none" xmlns="http://www.w3.org/2000/svg">
<path d="M15.8334 6.66666C17.2141 6.66666 18.3334 5.54738 18.3334 4.16666C18.3334 2.78595 17.2141 1.66666 15.8334 1.66666C14.4527 1.66666 13.3334 2.78595 13.3334 4.16666C13.3334 5.54738 14.4527 6.66666 15.8334 6.66666Z" stroke="#3D4754" stroke-width="1.5" stroke-linecap="round" stroke-linejoin="round"/>
<path d="M11.6833 1.83333C11.1333 1.725 10.575 1.66666 9.99996 1.66666C5.39996 1.66666 1.66663 5.4 1.66663 10C1.66663 14.6 5.39996 18.3333 9.99996 18.3333C14.6 18.3333 18.3333 14.6 18.3333 10C18.3333 9.43333 18.275 8.875 18.1666 8.34166" stroke="#3D4754" stroke-width="1.5" stroke-linecap="round" stroke-linejoin="round"/>
</svg>
