<svg width="30" height="30" viewBox="0 0 30 30" fill="none" xmlns="http://www.w3.org/2000/svg">
<path d="M11.25 12.5C12.6307 12.5 13.75 11.3807 13.75 10C13.75 8.61929 12.6307 7.5 11.25 7.5C9.86929 7.5 8.75 8.61929 8.75 10C8.75 11.3807 9.86929 12.5 11.25 12.5Z" stroke="#A09F9F" stroke-width="1.5" stroke-linecap="round" stroke-linejoin="round"/>
<path d="M16.25 2.5H11.25C5 2.5 2.5 5 2.5 11.25V18.75C2.5 25 5 27.5 11.25 27.5H18.75C25 27.5 27.5 25 27.5 18.75V12.5" stroke="#A09F9F" stroke-width="1.5" stroke-linecap="round" stroke-linejoin="round"/>
<path d="M23.9251 3.23751L19.3876 7.775C19.2126 7.95 19.0376 8.28751 19.0126 8.53751L18.7626 10.275C18.6751 10.9 19.1126 11.3375 19.7376 11.25L21.4751 11C21.7126 10.9625 22.0626 10.8 22.2376 10.625L26.7751 6.08751C27.5626 5.30001 27.9251 4.40001 26.7751 3.25001C25.6126 2.07501 24.7126 2.45001 23.9251 3.23751Z" stroke="#A09F9F" stroke-width="1.5" stroke-miterlimit="10" stroke-linecap="round" stroke-linejoin="round"/>
<path d="M23.2749 3.8875C23.6624 5.2625 24.7374 6.3375 26.1124 6.725" stroke="#A09F9F" stroke-width="1.5" stroke-miterlimit="10" stroke-linecap="round" stroke-linejoin="round"/>
<path d="M3.3374 23.6875L9.4999 19.55C10.4874 18.8875 11.9124 18.9625 12.7999 19.725L13.2124 20.0875C14.1874 20.925 15.7624 20.925 16.7374 20.0875L21.9374 15.625C22.9124 14.7875 24.4874 14.7875 25.4624 15.625L27.4999 17.375" stroke="#A09F9F" stroke-width="1.5" stroke-linecap="round" stroke-linejoin="round"/>
</svg>
